<?xml version="1.0" encoding="utf-8"?>
<!-- Generator: Adobe Illustrator 26.0.0, SVG Export Plug-In . SVG Version: 6.00 Build 0)  -->
<svg version="1.1" id="Capa_1" xmlns="http://www.w3.org/2000/svg" xmlns:xlink="http://www.w3.org/1999/xlink" x="0px" y="0px"
	 viewBox="0 0 800 800" style="enable-background:new 0 0 800 800;" xml:space="preserve">
<style type="text/css">
	.st0{stroke:#FFFFFF;stroke-miterlimit:10;}
	.st1{fill:#000ECB;}
	.st2{fill:#FFFFFF;}
</style>
<g>
	<g>
		<path class="st0" d="M400,260.5c-76.9,0-139.5,62.6-139.5,139.5c0,77,62.6,139.6,139.5,139.6S539.5,477,539.5,400
			C539.5,323.1,476.9,260.5,400,260.5z M400,488.5c-48.8,0-88.5-39.7-88.5-88.5s39.7-88.5,88.5-88.5s88.5,39.7,88.5,88.5
			S448.8,488.5,400,488.5z"/>
		<path class="st1" d="M56.6,400h686.8C743.4,400,433.8,858.4,56.6,400z"/>
		<path class="st1" d="M743.4,400H56.6C56.6,400,366.2-58.4,743.4,400z"/>
		<path class="st2" d="M739.7,383.9C733.6,376,586.9,191,400,191S66.4,376,60.3,383.9L47.7,400l12.6,16.1
			C66.4,424,213.1,609,400,609s333.6-185,339.7-192.9l12.6-16.1L739.7,383.9z M400,556.7c-131.4,0-246.1-113.8-284.7-156.7
			c38.6-42.9,153.3-156.7,284.7-156.7S646.1,357.1,684.7,400C646.1,442.9,531.4,556.7,400,556.7z"/>
		<circle class="st2" cx="400" cy="400" r="124.2"/>
		<circle class="st1" cx="400" cy="400" r="92.3"/>
		<ellipse class="st2" cx="368.1" cy="351.2" rx="49.1" ry="43.5"/>
	</g>
</g>
</svg>
